/* XPM */
static char *f7610d30b06640098e31df77592d80d75mlkQbUFzMCrzmgC[] = {
/* columns rows colors chars-per-pixel */
"64 64 15 1 ",
"  c #E8FA4B",
". c #E6F35D",
"X c #E4EB6D",
"o c #E2E47B",
"O c #C979FF",
"+ c #D8BCB9",
"@ c #DED596",
"# c #E0DC89",
"$ c #DCCDA2",
"% c #D4ABCF",
"& c #D6B3C4",
"* c #D2A1D9",
"= c #CD8EEC",
"- c #CF98E3",
"; c #CB84F6",
/* pixels */
"OOOOOOOOOOOOOOOOOOOOOOOOOOOOOOOOOOOOOOOOOOOOOOOOOOOOOOOOOOOOOOOO",
"OOOOOOOOOOOOOOOOOOOOOOOOOOOOOOOOOOOOOOOOOOOOOOOOOOOOOOOOOOOOOOOO",
"OOOOOOOOOOOOOOOOOOOOOOOOOOOOOOOOOOOOOOOOOOOOOOOOOOOOOOOOOOOOOOOO",
"OOOOOOOOOOOOOOOOOOOOOOOOOOOOOOOOOOOOOOOOOOOOOOOOOOOOOOOOOOOOOOOO",
"OOOOOOOOOOOOOOOOOOOOOOOOOOOOOOOOOOOOOOOOOOOOOOOOOOOOOOOOOOOOOOOO",
"OOOOOOOOOOOOOOOOOOOOOOOOOOOOOOOOOOOOOOOOOOOOOOOOOOOOOOOOOOOOOOOO",
"OOOOOOOOOOOOOOOOOOOOOOOOOOOOOOOOOOOOOOOOOOOOOOOOOOOOOOOOOOOOOOOO",
"OOOOOOOOOOOOOOOOOOOOOOOOOOOOOOOOOOOOOOOOOOOOOOOOOOOOOOOOOOOOOOOO",
"OOOOOOOOOOOOOOOOOOOOOOOOOOOOOOOOOOOOOOOOOOOOOOOOOOOOOOOOOOOOOOOO",
"OOOOOOOOOOOOOOOOOOOOOOOOOOOOOOOOOOOOOOOOOOOOOOOOOOOOOOOOOOOOOOOO",
"OOOOOOOOOOOOOOOOOOOOOOOOOOOOOOOOOOOOOOOOOOOOOOOOOOOOOOOOOOOOOOOO",
"OOOOOOOOOOOOOOOOOOOOOOOOOOOOOOOOOOOOOOOOOOOOOOOOOOOOOOOOOOOOOOOO",
"OOOOOOOOOOOOOOOOOOOOOOOOOOOOOOOOOOOOOOOOOOOOOOOOOOOOOOOOOOOOOOOO",
"OOOOOOOOOOOOOOOOOOOOOOOOOOOOOOOOOOOOOOO-o .&OOOOOOOOOOOOOOOOOOOO",
"OOOOOOOOOOOOOOOOO+  #=OOOOOOOOOOOOOOOOOo    ;OOOOOOOOOOOOOOOOOOO",
"OOOOOOOOOOOOOOOO%    @OOOOOOOOOOOOOOOOOX    *OOOOOOOOOOOOOOOOOOO",
"OOOOOOOOOOOOOOOO&    #OOOOOOOOOOOOOOOOOX    *OOOOOOOOOOOOOOOOOOO",
"OOOOOOOOOOOOOOOO&    #OOOOOOOOOOOOOOOOOX    *OOOOOOOOOOOOOOOOOOO",
"OOOOOOOOOOOOOOOO&    #OOOOOOOOOOOOOOOOOX    *OOOOOOOOOOOOOOOOOOO",
"OOOOOOOOOOOOOOOO&    #OOOOOOOOOOOOOOOOOX    *OOOOOOOOOOOOOOOOOOO",
"OOOOOOOOOOOOOOOO&    #OOOOOOOOOOOOOOOOOX    *OOOOOOOOOOOOOOOOOOO",
"OOOOOOOOOOOOOOOO&    #OOOOOOOOOOOOOOOOOX         *OOOOOOOOOOOOOO",
"OOOOOOOOOOOOOOOO&    #OOOOOOOOOOOOOOOOOX         #OOOOOOOOOOOOOO",
"OOOOOOOOOOOOOOOO&    #OOOOOOOOOOOOOOOOOX         #OOOOOOOOOOOOOO",
"OOOOOOOOOOOOOOOO&    #OOOOOOOOOOOOOOOOOX         *OOOOOOOOOOOOOO",
"OOOOOOOOOOOOOOOO&    #OOOOOOOOOOOOOOOOOX    *OOOOOOOOOOOOOOOOOOO",
"OOOOOOOOOOOOOOOO&    XOOOOOOOOOOOOOOOOOX    *OOOOOOOOOOOOOOOOOOO",
"OOOOOOOOOOOOOOOO&                   $OOX    *OOOOOOOOOOOOOOOOOOO",
"OOOOOOOOOOOOOOOO%                    -OX    *OOOOOOOOOOOOOOOOOOO",
"OOOOOOOOOOOOOOOO;                    -OX    *OOOOOOOOOOOOOOOOOOO",
"OOOOOOOOOOOOOOOOO%X                 #OOX    *OOOOOOOOOOOOOOOOOOO",
"OOOOOOOOOOOOOOOOOOOOOOOOOOOOOOOOOOOOOOOX    *OOOOOOOOOOOOOOOOOOO",
"OOOOOOOOOOOOOOOOOOOOOOOOOOOOOOOOOOOOOOOo    ;OOOOOOOOOOOOOOOOOOO",
"OOOOOOOOOOOOOOOOOOOOOOOOOOOOOOOOOOOOOOO-o .%OOOOOOOOOOOOOOOOOOOO",
"OOOOOOOOOOOOOOOOOOOOOOOOOOOOOOOOOOOOOOOOOOOOOOOOOOOOOOOOOOOOOOOO",
"OOOOOOOOOOOOOOOOOOOOO&.                   o*OOOOOOOOOOOOOOOOOOOO",
"OOOOOOOOOOOOOOOOOOOO-                      .OOOOOOOOOOOOOOOOOOOO",
"OOOOOOOOOOOOOOOOOOOO+                       =OOOOOOOOOOOOOOOOOOO",
"OOOOOOOOOOOOOOOOOOOO+                       *OOOOOOOOOOOOOOOOOOO",
"OOOOOOOOOOOOOOOOOOOO+    #OOOOOOOOOOOO;.    *OOOOOOOOOOOOOOOOOOO",
"OOOOOOOOOOOOOOOOOOOO+    $OOOOOOOOOOOOOX    *OOOOOOOOOOOOOOOOOOO",
"OOOOOOOOOOOOOOOOOOOO+    $OOOOOOOOOOOOOX    *OOOOOOOOOOOOOOOOOOO",
"OOOOOOOOOOOOOOOOOOOO+    $OOOOOOOOOOOOOX    *OOOOOOOOOOOOOOOOOOO",
"OOOOOOOOOOOOOOOOOOOO+    $OOOOOOOOOOOOOX    *OOOOOOOOOOOOOOOOOOO",
"OOOOOOOOOOOOOOOOOOOO+    $OOOOOOOOOOOOOX    *OOOOOOOOOOOOOOOOOOO",
"OOOOOOOOOOOOOOOOOOOO+    #OOOOOOOOOOOO;.    *OOOOOOOOOOOOOOOOOOO",
"OOOOOOOOOOOOOOOOOOOO+                       *OOOOOOOOOOOOOOOOOOO",
"OOOOOOOOOOOOOOOOOOOO+                       =OOOOOOOOOOOOOOOOOOO",
"OOOOOOOOOOOOOOOOOOOO-                      .OOOOOOOOOOOOOOOOOOOO",
"OOOOOOOOOOOOOOOOOOOOO&.                   o*OOOOOOOOOOOOOOOOOOOO",
"OOOOOOOOOOOOOOOOOOOOOOOOOOOOOOOOOOOOOOOOOOOOOOOOOOOOOOOOOOOOOOOO",
"OOOOOOOOOOOOOOOOOOOOOOOOOOOOOOOOOOOOOOOOOOOOOOOOOOOOOOOOOOOOOOOO",
"OOOOOOOOOOOOOOOOOOOOOOOOOOOOOOOOOOOOOOOOOOOOOOOOOOOOOOOOOOOOOOOO",
"OOOOOOOOOOOOOOOOOOOOOOOOOOOOOOOOOOOOOOOOOOOOOOOOOOOOOOOOOOOOOOOO",
"OOOOOOOOOOOOOOOOOOOOOOOOOOOOOOOOOOOOOOOOOOOOOOOOOOOOOOOOOOOOOOOO",
"OOOOOOOOOOOOOOOOOOOOOOOOOOOOOOOOOOOOOOOOOOOOOOOOOOOOOOOOOOOOOOOO",
"OOOOOOOOOOOOOOOOOOOOOOOOOOOOOOOOOOOOOOOOOOOOOOOOOOOOOOOOOOOOOOOO",
"OOOOOOOOOOOOOOOOOOOOOOOOOOOOOOOOOOOOOOOOOOOOOOOOOOOOOOOOOOOOOOOO",
"OOOOOOOOOOOOOOOOOOOOOOOOOOOOOOOOOOOOOOOOOOOOOOOOOOOOOOOOOOOOOOOO",
"OOOOOOOOOOOOOOOOOOOOOOOOOOOOOOOOOOOOOOOOOOOOOOOOOOOOOOOOOOOOOOOO",
"OOOOOOOOOOOOOOOOOOOOOOOOOOOOOOOOOOOOOOOOOOOOOOOOOOOOOOOOOOOOOOOO",
"OOOOOOOOOOOOOOOOOOOOOOOOOOOOOOOOOOOOOOOOOOOOOOOOOOOOOOOOOOOOOOOO",
"OOOOOOOOOOOOOOOOOOOOOOOOOOOOOOOOOOOOOOOOOOOOOOOOOOOOOOOOOOOOOOOO",
"OOOOOOOOOOOOOOOOOOOOOOOOOOOOOOOOOOOOOOOOOOOOOOOOOOOOOOOOOOOOOOOO"
};
