/* XPM */
static char *f994cccb5ad4416d8df5d7dcac59ca67AK11YDXsqppUVUDk[] = {
/* columns rows colors chars-per-pixel */
"64 64 50 1 ",
"  c #FF4E4E",
". c #FF5151",
"X c #FF5757",
"o c #F65C5F",
"O c #FF5C5C",
"+ c #FF5F5F",
"@ c #F65F62",
"# c #ED696F",
"$ c #FF6161",
"% c #FF6464",
"& c #FF6666",
"* c #F66568",
"= c #FF6B6B",
"- c #E3757D",
"; c #FF7373",
": c #FF7575",
"> c #5FDEF7",
", c #7DCCE3",
"< c #7DCEE5",
"1 c #7DD0E7",
"2 c #4EE4FF",
"3 c #BA9FAF",
"4 c #AFA9BA",
"5 c #AFAABB",
"6 c #BAA9B9",
"7 c #BAAEBD",
"8 c #D9808A",
"9 c #D98690",
"0 c #D98A94",
"q c #CF909C",
"w c #E38088",
"e c #E3878E",
"r c #C595A3",
"t c #C599A7",
"y c #C59DAA",
"u c #C59DAB",
"i c #CF9FAB",
"p c #D997A1",
"a c #C5A3B1",
"s c #C5A7B4",
"d c #97BCD0",
"f c #97BDD1",
"g c #A3B2C5",
"h c #AFB5C6",
"j c #A3BDCF",
"k c #8AC3D9",
"l c #8AC7DD",
"z c #8AC8DE",
"x c #97C1D5",
"c c #8ACAE0",
/* pixels */
"                                                                ",
"                                                                ",
"                                                                ",
"                                                                ",
"                                                                ",
"                                                                ",
"                                                                ",
"                                                                ",
"                                                                ",
"                                                                ",
"                                                                ",
"                                                                ",
"                                                                ",
"                                                                ",
"                    322,-               g22k#                   ",
"                   -2222f              82222f                   ",
"                   t2222z              92222z                   ",
"                   y222222222222222222222222z                   ",
"                   y222222222222222222222222z                   ",
"                   y222222222222222222222222z                   ",
"                   y222222222222222222222222z                   ",
"                   y2222c::::::::::::::p2222z                   ",
"                   y2222z              92222z                   ",
"                   y2222z              q2222z                   ",
"                   y222222222222222222222222l                   ",
"                   0222222222222222222222222x                   ",
"                   *2222222222222222222222226                   ",
"                   .i>222222222222222222222j$                   ",
"                    O;:::::::::::::::::::::&                    ",
"                                                                ",
"                                                                ",
"               -222222222222222222222222222222224               ",
"               f222222222222222222222222222222222o              ",
"               x222222222222222222222222222222222*              ",
"               e22222222222222222222222222222222h               ",
"               X:::::::::::::s2222c:::::::::::::$               ",
"                             y2222z                             ",
"                             y2222z                             ",
"                   r22222222222222222222222go                   ",
"                   <2222222222222222222222224                   ",
"                   1222222222222222222222222l                   ",
"                   a222222222222222222222222z                   ",
"                   +:::::::::::::::::::72222z                   ",
"                                       y2222z                   ",
"                                       y2222z                   ",
"                                       y2222z                   ",
"                                       y2222z                   ",
"                                       y2222z                   ",
"                                       w2222x                   ",
"                                       X722ce                   ",
"                                        $::=X                   ",
"                                                                ",
"                                                                ",
"                                                                ",
"                                                                ",
"                                                                ",
"                                                                ",
"                                                                ",
"                                                                ",
"                                                                ",
"                                                                ",
"                                                                ",
"                                                                ",
"                                                                "
};
