/* XPM */
static char *_f25deb2ce5940e7dcd5bbdea5e06581aBEGQvKknlBquNDD[] = {
/* columns rows colors chars-per-pixel */
"64 64 16 1 ",
"  c #FF644B",
". c #F7645D",
"X c #EE636D",
"o c #E5637B",
"O c #5F5FFF",
"+ c #6E5FF6",
"@ c #7B60EC",
"# c #BF62AE",
"$ c #B561B9",
"% c #DC6389",
"& c #D36296",
"* c #C962A2",
"= c #9F61CF",
"- c #9460D9",
"; c #AA61C4",
": c #8860E3",
/* pixels */
"OOOOOOOOOOOOOOOOOOOOOOOOOOOOOOOOOOOOOOOOOOOOOOOOOOOOOOOOOOOOOOOO",
"OOOOOOOOOOOOOOOOOOOOOOOOOOOOOOOOOOOOOOOOOOOOOOOOOOOOOOOOOOOOOOOO",
"OOOOOOOOOOOOOOOOOOOOOOOOOOOOOOOOOOOOOOOOOOOOOOOOOOOOOOOOOOOOOOOO",
"OOOOOOOOOOOOOOOOOOOOOOOOOOOOOOOOOOOOOOOOOOOOOOOOOOOOOOOOOOOOOOOO",
"OOOOOOOOOOOOOOOOOOOOOOOOOOOOOOOOOOOOOOOOOOOOOOOOOOOOOOOOOOOOOOOO",
"OOOOOOOOOOOOOOOOOOOOOOOOOOOOOOOOOOOOOOOOOOOOOOOOOOOOOOOOOOOOOOOO",
"OOOOOOOOOOOOOOOOOOOOOOOOOOOOOOOOOOOOOOOOOOOOOOOOOOOOOOOOOOOOOOOO",
"OOOOOOOOOOOOOOOOOOOOOOOOOOOOOOOOOOOOOOOOOOOOOOOOOOOOOOOOOOOOOOOO",
"OOOOOOOOOOOOOOOOOOOOOOOOOOOOOOOOOOOOOOOOOOOOOOOOOOOOOOOOOOOOOOOO",
"OOOOOOOOOOOOOOOOOOOOOOOOOOOOOOOOOOOOOOOOOOOOOOOOOOOOOOOOOOOOOOOO",
"OOOOOOOOOOOOOOOOOOOOOOOOOOOOOOOOOOOOOOOOOOOOOOOOOOOOOOOOOOOOOOOO",
"OOOOOOOOOOOOOOOOOOOOOOOOOOOOOOOOOOOOOOOOOOOOOOOOOOOOOOOOOOOOOOOO",
"OOOOOOOOOOOOOOOOOOOOOOOOOOOOOOOOOOOOOOOOOOOOOOOOOOOOOOOOOOOOOOOO",
"OOOOOOOOOOOOOOOOOOOOOOOOOOOOOOOOOOOOOOOOOOOOOOOOOOOOOOOOOOOOOOOO",
"OOOOOOOOOOOOOOOOOOOO=X                     X@OOOOOOOOOOOOOOOOOOO",
"OOOOOOOOOOOOOOOOOOO+                        $OOOOOOOOOOOOOOOOOOO",
"OOOOOOOOOOOOOOOOOOO-                        $OOOOOOOOOOOOOOOOOOO",
"OOOOOOOOOOOOOOOOOOO=                       X@OOOOOOOOOOOOOOOOOOO",
"OOOOOOOOOOOOOOOOOOO;    .+OOOOOOOOOOOOOOOOOOOOOOOOOOOOOOOOOOOOOO",
"OOOOOOOOOOOOOOOOOOO;    XOOOOOOOOOOOOOOOOOOOOOOOOOOOOOOOOOOOOOOO",
"OOOOOOOOOOOOOOOOOOO;    XOOOOOOOOOOOOOOOOOOOOOOOOOOOOOOOOOOOOOOO",
"OOOOOOOOOOOOOOOOOOO;    XOOOOOOOOOOOOOOOOOOOOOOOOOOOOOOOOOOOOOOO",
"OOOOOOOOOOOOOOOOOOO;    .+OOOOOOOOOOOOOOOOOOOOOOOOOOOOOOOOOOOOOO",
"OOOOOOOOOOOOOOOOOOO=                        ;OOOOOOOOOOOOOOOOOOO",
"OOOOOOOOOOOOOOOOOOO-                        .OOOOOOOOOOOOOOOOOOO",
"OOOOOOOOOOOOOOOOOOO+                        .OOOOOOOOOOOOOOOOOOO",
"OOOOOOOOOOOOOOOOOOOO=X                      ;OOOOOOOOOOOOOOOOOOO",
"OOOOOOOOOOOOOOOOOOOOOOOOOOOOO;    %OOOOOOOOOOOOOOOOOOOOOOOOOOOOO",
"OOOOOOOOOOOOOOOOOOOOOOOOOOOOO;    %OOOOOOOOOOOOOOOOOOOOOOOOOOOOO",
"OOOOOOOOOOOOOOOOOOOOOOOOOOOOO;    %OOOOOOOOOOOOOOOOOOOOOOOOOOOOO",
"OOOOOOOOOOOOOOOOOOOOOOOOOOOOO;    %OOOOOOOOOOOOOOOOOOOOOOOOOOOOO",
"OOOOOOOOOOOOOOO:                                #OOOOOOOOOOOOOOO",
"OOOOOOOOOOOOOOO&                                 +OOOOOOOOOOOOOO",
"OOOOOOOOOOOOOOO&                                 +OOOOOOOOOOOOOO",
"OOOOOOOOOOOOOOO:                                #OOOOOOOOOOOOOOO",
"OOOOOOOOOOOOOOOOOOOOOOOOOOOOOOOOOOOOOOOOOOOOOOOOOOOOOOOOOOOOOOOO",
"OOOOOOOOOOOOOOOOOOOOOOOOO=$$        &$$OOOOOOOOOOOOOOOOOOOOOOOOO",
"OOOOOOOOOOOOOOOOOOOOOO+#                %=OOOOOOOOOOOOOOOOOOOOOO",
"OOOOOOOOOOOOOOOOOOOOO=                    &OOOOOOOOOOOOOOOOOOOOO",
"OOOOOOOOOOOOOOOOOOOO=                      &OOOOOOOOOOOOOOOOOOOO",
"OOOOOOOOOOOOOOOOOOOOX     %$:OOOOOOO$#      -OOOOOOOOOOOOOOOOOOO",
"OOOOOOOOOOOOOOOOOOO:     ;OOOOOOOOOOOO@X    *OOOOOOOOOOOOOOOOOOO",
"OOOOOOOOOOOOOOOOOOO;    oOOOOOOOOOOOOOO=    %OOOOOOOOOOOOOOOOOOO",
"OOOOOOOOOOOOOOOOOOO;    oOOOOOOOOOOOOOO=    %OOOOOOOOOOOOOOOOOOO",
"OOOOOOOOOOOOOOOOOOO:     ;OOOOOOOOOOOO@X    *OOOOOOOOOOOOOOOOOOO",
"OOOOOOOOOOOOOOOOOOOOX     %$:OOOOOOO$#      -OOOOOOOOOOOOOOOOOOO",
"OOOOOOOOOOOOOOOOOOOO=                      &OOOOOOOOOOOOOOOOOOOO",
"OOOOOOOOOOOOOOOOOOOOO=                    &OOOOOOOOOOOOOOOOOOOOO",
"OOOOOOOOOOOOOOOOOOOOOO+#                %=OOOOOOOOOOOOOOOOOOOOOO",
"OOOOOOOOOOOOOOOOOOOOOOOOO=$$        &$$OOOOOOOOOOOOOOOOOOOOOOOOO",
"OOOOOOOOOOOOOOOOOOOOOOOOOOOOOOOOOOOOOOOOOOOOOOOOOOOOOOOOOOOOOOOO",
"OOOOOOOOOOOOOOOOOOOOOOOOOOOOOOOOOOOOOOOOOOOOOOOOOOOOOOOOOOOOOOOO",
"OOOOOOOOOOOOOOOOOOOOOOOOOOOOOOOOOOOOOOOOOOOOOOOOOOOOOOOOOOOOOOOO",
"OOOOOOOOOOOOOOOOOOOOOOOOOOOOOOOOOOOOOOOOOOOOOOOOOOOOOOOOOOOOOOOO",
"OOOOOOOOOOOOOOOOOOOOOOOOOOOOOOOOOOOOOOOOOOOOOOOOOOOOOOOOOOOOOOOO",
"OOOOOOOOOOOOOOOOOOOOOOOOOOOOOOOOOOOOOOOOOOOOOOOOOOOOOOOOOOOOOOOO",
"OOOOOOOOOOOOOOOOOOOOOOOOOOOOOOOOOOOOOOOOOOOOOOOOOOOOOOOOOOOOOOOO",
"OOOOOOOOOOOOOOOOOOOOOOOOOOOOOOOOOOOOOOOOOOOOOOOOOOOOOOOOOOOOOOOO",
"OOOOOOOOOOOOOOOOOOOOOOOOOOOOOOOOOOOOOOOOOOOOOOOOOOOOOOOOOOOOOOOO",
"OOOOOOOOOOOOOOOOOOOOOOOOOOOOOOOOOOOOOOOOOOOOOOOOOOOOOOOOOOOOOOOO",
"OOOOOOOOOOOOOOOOOOOOOOOOOOOOOOOOOOOOOOOOOOOOOOOOOOOOOOOOOOOOOOOO",
"OOOOOOOOOOOOOOOOOOOOOOOOOOOOOOOOOOOOOOOOOOOOOOOOOOOOOOOOOOOOOOOO",
"OOOOOOOOOOOOOOOOOOOOOOOOOOOOOOOOOOOOOOOOOOOOOOOOOOOOOOOOOOOOOOOO",
"OOOOOOOOOOOOOOOOOOOOOOOOOOOOOOOOOOOOOOOOOOOOOOOOOOOOOOOOOOOOOOOO"
};
